<svg xmlns="http://www.w3.org/2000/svg" version="1.1" xmlns:xlink="http://www.w3.org/1999/xlink" xmlns:svgjs="http://svgjs.com/svgjs" width="1440" height="560" preserveAspectRatio="none" viewBox="0 0 1440 560"><g mask="url(&quot;#SvgjsMask1224&quot;)" fill="none"><rect width="1440" height="560" x="0" y="0" fill="rgba(255, 0, 110, 1)"></rect><path d="M1536 560L0 560 L0 316.93Q64.68 309.61, 72 374.29Q100.3 330.59, 144 358.88Q170.27 265.15, 264 291.43Q330.88 238.31, 384 305.2Q456.46 257.66, 504 330.12Q550.88 305, 576 351.87Q585.26 289.13, 648 298.4Q678.47 256.87, 720 287.33Q778 273.33, 792 331.33Q838.37 305.69, 864 352.06Q935.19 303.25, 984 374.45Q1025.54 295.99, 1104 337.52Q1120.13 281.65, 1176 297.78Q1241.43 243.21, 1296 308.65Q1384.72 277.38, 1416 366.1Q1458.17 288.27, 1536 330.45z" fill="#182f5d"></path><path d="M1464 560L0 560 L0 434.33Q19.99 382.31, 72 402.3Q110.76 321.06, 192 359.82Q242.79 338.61, 264 389.4Q320.77 374.17, 336 430.94Q344.58 367.52, 408 376.1Q457.44 305.54, 528 354.97Q621.24 328.21, 648 421.44Q669.79 371.23, 720 393.02Q759.48 312.5, 840 351.98Q933.93 325.91, 960 419.84Q987.67 375.51, 1032 403.19Q1071.6 322.78, 1152 362.38Q1224.74 315.13, 1272 387.87Q1345.1 340.97, 1392 414.06Q1436.63 386.69, 1464 431.33z" fill="#25467d"></path><path d="M1512 560L0 560 L0 476.87Q76.81 433.68, 120 510.49Q134.76 405.25, 240 420.02Q283.3 391.32, 312 434.62Q401.18 403.8, 432 492.97Q451.5 440.48, 504 459.98Q546.16 382.14, 624 424.31Q691.09 371.4, 744 438.5Q789.4 411.9, 816 457.3Q892.07 413.37, 936 489.43Q983.45 464.88, 1008 512.34Q1050.46 434.81, 1128 477.27Q1165.78 395.05, 1248 432.84Q1325.08 389.91, 1368 466.99Q1412.01 439, 1440 483.01Q1491.36 462.37, 1512 513.72z" fill="#356cb1"></path><path d="M1560 560L0 560 L0 520.29Q24.13 472.42, 72 496.55Q156.93 461.48, 192 546.41Q213.64 496.05, 264 517.69Q293.29 474.99, 336 504.28Q397.58 493.86, 408 555.44Q461.3 488.75, 528 542.05Q583.99 526.04, 600 582.03Q602.15 512.18, 672 514.34Q699.18 469.52, 744 496.71Q835.26 467.97, 864 559.23Q902.25 477.48, 984 515.72Q1060.06 471.78, 1104 547.84Q1148.36 520.2, 1176 564.56Q1179 495.56, 1248 498.56Q1310.64 489.21, 1320 551.85Q1393.17 505.02, 1440 578.19Q1465.3 483.49, 1560 508.79z" fill="white"></path></g><defs><mask id="SvgjsMask1224"><rect width="1440" height="560" fill="#ffffff"></rect></mask></defs></svg>